<?xml version="1.0" encoding="UTF-8"?>
<svg width="53" height="38" xmlns="http://www.w3.org/2000/svg">
 <title>PAWStats</title>
 <metadata id="metadata1">image/svg+xml</metadata>
 <g transform="scale(0.8) translate(0 0)">
  <title>Layer 1</title>
  <path
	id='line1'
	stroke-width='3'
	fill='none' stroke='#DD7733'  
	style="stroke-opacity:0.6"	
	d='M2,20 L10,10 L20,40 L40,5 L50,20 L60,5'
  />

 <g transform="rotate(30 212.065 195.241) scale(0.12) translate(-460 935)" id="layer1">
   <path d="m275.721985,19.5408c-0.776978,0.0098 -1.575989,0.047501 
   -2.368988,0.108799c-31.580994,5.383701 -48.944992,38.365103 
   -51.460999,67.448904c-3.677002,26.390495 8.098999,60.310493 
   37.438995,66.224495c4.256012,0.800003 8.677002,0.434006 
   12.838013,-0.679993c35.329987,-11.700012 51.140991,-53.026009 
   46.033997,-87.256508c-1.485016,-22.108196 -18.359009,-46.149498 
   -42.481018,-45.845697l0,0zm-133.886978,1.414801c-19.637009,0.476099 
   -34.933006,20.145699 -38.045006,38.635498c-6.5597,36.632404 10.312996,82.148907 
   48.954002,93.731899c3.619995,0.777008 7.363998,0.856995 
   11.020004,0.298996c26.117996,-4.297989 37.181,-33.218994 
   36.088989,-56.565292c-0.785995,-30.797501 -16.983994,-66.407902 
   -49.367996,-75.067202c-2.960007,-0.7752 -5.845001,-1.1019 
   -8.649994,-1.033899zm219.453995,104.0434c-33.971008,2.006996 -57.26001,35.482994 
   -60.579987,66.741997c-4.496002,22.544006 7.673981,52.697998 
   33.719971,54.498001c36.318024,-0.442993 61.093018,-38.770004 
   62.123016,-71.748001c2.296997,-21.811996 -10.712006,-48.287994 
   -35.263,-49.491997zm-297.334702,7.428001c-14.4524,-0.123001 -28.666401,8.427002 
   -33.3892,22.936996c-12.6,38.813004 12.702299,87.968994 
   54.326303,96.126007c17.371597,2.934998 32.635597,-10.240005 
   36.943596,-26.09201c9.127007,-33.90799 -9.621002,-73.279999 
   -41.351402,-88.671997c-5.169395,-2.865005 -10.8741,-4.250992 
   -16.529297,-4.298996zm152.290695,69.598999c-28.334,0.059006 -57.110001,14.259003 
   -75.457001,35.397003c-19.814995,24.636993 -36.046997,53.307983 
   -42.397591,84.399994c-7.714905,22.381012 9.770599,48.139008 
   33.995598,48.294006c29.143005,0.799988 54.190002,-18.966003 
   83.168991,-20.433014c24.587006,-3.701996 46.602997,8.929016 
   68.708008,17.196014c18.820007,7.949982 44.826996,4.902008 
   54.436005,-15.101013c7.557983,-20.389984 -3.567017,-42.130981 
   -12.782013,-60.238983c-18.796997,-29.391022 -38.934998,-60.281006 
   -69.753998,-78.631012c-12.352997,-7.563004 -26.082001,-10.912994 
   -39.917999,-10.882996z" stroke-width="1" stroke="#888888" fill="#000066"
   id="path1"/>
  </g>

   <marker id='head' orient="auto"
    markerWidth='2' markerHeight='4'
    refX='0.1' refY='2'>
    <!-- triangle pointing right (+x) -->
    <path d='M0,0 V4 L2,2 Z' fill="#1111BB" style="fill-opacity:0.6"/>
  </marker>

  <path
	id='arrow-line'
	marker-end='url(#head)'
	stroke-width='3'
	fill='none' stroke='#1111BB'  
	style="stroke-opacity:0.6"
	d='M3,30 L60,30'
  />
 </g>
</svg>
